<?xml version="1.0" encoding="utf-8"?>
<!-- Generator: Adobe Illustrator 16.0.4, SVG Export Plug-In . SVG Version: 6.00 Build 0)  -->
<!DOCTYPE svg PUBLIC "-//W3C//DTD SVG 1.1//EN" "http://www.w3.org/Graphics/SVG/1.1/DTD/svg11.dtd">
<svg version="1.1" id="Ausgangsdatei_Bildzeichen_100_x25_"
	 xmlns="http://www.w3.org/2000/svg" xmlns:xlink="http://www.w3.org/1999/xlink" x="0px" y="0px" width="99.21191px"
	 height="29.19678px" viewBox="0 0 99.21191 29.19678" enable-background="new 0 0 99.21191 29.19678" xml:space="preserve">
<path fill="#AF2832" d="M18.98096,7.61279c-0.75928-3.26416-2.20117-5.29639-5.42822-5.29639H7.28857v11.49463h3.68262
	c2.31543,0,3.7583-1.03516,4.1001-4.07227h0.60791v9.1875h-0.60791c-0.3418-3.03662-1.78467-4.07275-4.1001-4.07275H7.28857
	v12.02686h6.03662c3.22705,0,5.12451-1.57666,6.11133-5.29736h0.60742l-0.37939,6.30225H0v-0.89111
	c2.61963-0.18945,2.92334-0.26562,2.92334-1.67041V3.87305c0-1.40479-0.30371-1.48096-2.92334-1.67041V1.31152h19.39844
	l0.19043,6.30127H18.98096z"/>
<path fill="#AF2832" d="M22.63525,26.99414c2.61963-0.18945,2.92285-0.26562,2.92285-1.67041V3.87305
	c0-1.40479-0.30322-1.48096-2.92285-1.67041V1.31152h11.08447c5.69531,0,8.73193,2.65723,8.73193,6.45312
	c0,3.03711-2.54346,5.58105-7.09912,6.30225v0.07568c6.22607,0.79736,8.23779,3.7959,8.23779,6.71924
	c0,4.17578-3.03662,7.02344-8.73096,7.02344H22.63525V26.99414z M32.54346,13.65918c3.7583,0,5.42871-2.17383,5.42871-5.51465
	c0-3.45459-1.32861-5.82812-4.97314-5.82812h-3.0752v11.34277H32.54346z M33.68262,26.88037
	c4.28955,0,5.27686-2.98096,5.27686-6.20801c0-3.53027-1.82227-5.93213-6.18848-5.93213h-2.84717v12.14014H33.68262z"/>
<path fill="#AF2832" d="M57.91162,1.31152c5.69531,0,8.92139,3.03711,8.92139,7.2124c0,3.79639-2.69482,8.04834-10.66699,8.04834
	h-2.84766v8.75146c0,1.40479,0.3042,1.48096,2.92334,1.67041v0.89111H46.02979v-0.89111
	c2.61963-0.18945,2.92334-0.26562,2.92334-1.9541V3.58936c0-1.12109-0.30371-1.19727-2.92334-1.38672V1.31152H57.91162z
	 M53.31836,15.5293h2.6958c4.89746,0,6.18799-3.28467,6.18799-6.62598c0-3.03613-1.21484-6.58691-5.35254-6.58691h-3.53125V15.5293z
	"/>
<g>
	<path fill="#968782" d="M81.28369,26.32764c6.33789,1.69824,12.85205-2.0625,14.54932-8.40039
		c1.69824-6.33691-2.0625-12.85059-8.39941-14.54883c-6.3374-1.69824-12.85205,2.0625-14.54932,8.3999
		C71.18604,18.11523,74.94678,24.62988,81.28369,26.32764z M87.0874,4.66943c5.62354,1.50684,8.9624,7.28711,7.45508,12.9126
		c-1.50732,5.62402-7.28809,8.96191-12.9126,7.45459c-5.62402-1.50635-8.96191-7.28809-7.45508-12.9126
		C75.68164,6.49902,81.4624,3.16211,87.0874,4.66943z"/>
	<path fill="#968782" d="M80.86084,27.90576c-7.20801-1.93213-11.48584-9.3418-9.55469-16.5498
		c1.93164-7.20898,9.34131-11.4873,16.5498-9.55566c7.20801,1.93164,11.48682,9.34131,9.55566,16.5498l1.29053,0.34619
		c2.12207-7.92139-2.57812-16.06396-10.5-18.18652c-7.92188-2.12305-16.06445,2.57861-18.1875,10.50049
		c-2.12207,7.92139,2.57861,16.06396,10.5,18.18652L80.86084,27.90576z"/>
	<path fill="#968782" d="M84.35889,7.27979c4.18262,0,7.57275,3.39014,7.57275,7.57324c0,4.18213-3.39014,7.57275-7.57275,7.57275
		c-2.09229,0-3.98633-0.84766-5.35693-2.21875l-0.94531,0.94434c1.61328,1.61328,3.84033,2.61133,6.30225,2.61133
		c4.91992,0,8.90918-3.98877,8.90918-8.90967c0-4.92041-3.98926-8.90967-8.90918-8.90967V7.27979z"/>
</g>
</svg>
