<svg xmlns="http://www.w3.org/2000/svg" width="210" height="32" fill="#382e27" xmlns:v="https://vecta.io/nano"><path d="M5.172.383H0v23.746h5.172V.383zm13.085 18.948c-.315.157-.746.311-1.287.456s-1.103.221-1.691.221c-.63 0-1.116-.128-1.453-.387s-.562-.702-.678-1.332-.17-1.486-.17-2.567V7.143H7.805v8.816c0 1.916.17 3.504.507 4.764s.916 2.214 1.743 2.852 1.964.962 3.43.962c.967 0 1.819-.128 2.552-.387s1.483-.592 2.25-.996v.979h5.138V7.139h-5.172v12.192h.004zm17.391.66l-.895.051-.643.034c-.494 0-.869-.089-1.116-.268s-.413-.485-.49-.911-.119-1.026-.119-1.792v-5.709h3.988V7.139h-3.988V2.916h-5.172v4.223H25.39v4.257h1.823v6.99c0 1.622.175 2.878.524 3.768s.92 1.507 1.709 1.856 1.815.524 3.076.524a11.37 11.37 0 0 0 1.236-.085l1.453-.204 1.27-.221-.136-4.087a8.12 8.12 0 0 1-.694.051v.004zm9.467-11.856a12.34 12.34 0 0 0-1.351.928V7.139h-5.172v16.99h5.172V13.354l1.385-.66c.541-.238 1.116-.451 1.725-.643a9.88 9.88 0 0 1 1.726-.387v-4.93a6.24 6.24 0 0 0-1.76.507c-.61.269-1.184.57-1.726.894zm20.396 12.396a.96.96 0 0 1-.49-.626v-7.433c0-1.464-.268-2.605-.809-3.427s-1.325-1.405-2.348-1.758-2.271-.524-3.736-.524a23.73 23.73 0 0 0-2.603.153l-2.654.37-2.181.456.17 3.58 2.096-.204 2.467-.17 2.233-.068c.72 0 1.27.14 1.64.422s.558.762.558 1.435v.877l-3.788.302c-1.308.068-2.424.26-3.349.575s-1.628.826-2.113 1.537-.729 1.72-.729 3.022c0 1.848.456 3.223 1.368 4.121s2.292 1.349 4.141 1.349a10.88 10.88 0 0 0 2.113-.204 14.14 14.14 0 0 0 1.909-.507l1.419-.541c.205.226.511.443.929.66s.916.353 1.504.421l.843.051a8.58 8.58 0 0 0 1.082-.034l1.082-.085.102-3.444a3.05 3.05 0 0 1-.861-.319l.004.013zm-5.662-.49l-.878.302-1.133.302a5.29 5.29 0 0 1-1.167.136c-.541 0-.946-.17-1.218-.507s-.405-.788-.405-1.349.145-1.043.439-1.366.754-.524 1.385-.592l2.974-.268v3.346l.004-.004zM171.523 1.886c.017-.072.025-.111.025-.226-.085-.085-.089-.238-.204-.294-.073-.043-.184-.03-.316-.017l-.102.366.141.077c.119.072.277.098.456.094zm.179-1c-.043.081-.03.221-.013.358.089.043.209.17.285.2.115.043.239-.064.316.017.23.251.068.494.494.536.025.14.055.136.021.221-.192.234-.315.026-.456.396-.405-.034-.843 0-1.218-.119-.196-.06-.213-.179-.507-.179l.017.179-.09.047v1.252h3.144V.932c-.285-.119-.592-.289-.843-.281-.128-.072-1.112.209-1.142.234h-.008zM78.706 21.494l-1.521.119-1.202.051c-1.287 0-2.254-.196-2.906-.592s-1.099-1.047-1.334-1.958-.354-2.133-.354-3.665c0-1.337.115-2.409.345-3.227-.038-.008-.077-.021-.111-.043-.243-.149-.507-.417-.763-.558-.17-.094-.383-.077-.55-.175-.068-.081-.072-.191-.158-.255-.098-.064-.187-.038-.23-.068-.017-.013-.034-.025-.047-.043.013-.017.026-.034.043-.047.234-.03.247-.102.311-.026.136.162.064.217.375.192.107-.102.226-.149.43-.17.085.158.085.204.328.196.026-.149-.025-.064.077-.14.06.034.111.03.226.025.038-.162.128-.226.192-.375.162.081.217.115.499.089a.22.22 0 0 1 .043-.047c.038.017.055.038.072.055.2-.226.43-.43.695-.583.665-.383 1.606-.575 2.825-.575l1.185.051 1.487.119.452.043c.013-.017.026-.038.043-.051l.217-.064c.171-.17.047-.383-.004-.579.187.017.217.06.452.051.051-.111.136-.192.234-.255l.021-.549c-.23.175-.464.311-.652.349l.013.132-.132.013-.009-.089c-.038-.038-.077-.115-.102-.17.132-.081.221-.098.243-.289-.281-.064-.337-.387-.418-.677.145-.106.234-.128.341-.209-.081-.055-.136-.132-.175-.226l-.605-.094-1.76-.221-1.47-.085c-1.713 0-3.097.281-4.158.843s-1.823 1.469-2.301 2.72c-.115.302-.217.634-.303.988.068 0 .115 0 .162.025a.66.66 0 0 1-.166-.008c-.268 1.098-.4 2.435-.4 4.01 0 2.163.213 3.908.643 5.236s1.159 2.29 2.198 2.886c.724.417 1.649.685 2.761.813l.004-.2.166-.149-.068-.264.123-.102c.06-.132-.008-.196.017-.315.175.009.158-.072.392-.123-.025-.264-.098-.175-.115-.302.043-.115.124-.064.166-.149.141-.285-.043-.575.345-.656.068.115.115.14.162.298l-.358.524c-.047.145.128.272.038.443-.021.038-.145.102-.166.149l-.055.404-.17.102c-.077.136-.038.26-.115.37l1.159.047a16.76 16.76 0 0 0 1.521-.085l1.777-.204 1.572-.221-.102-2.567-1.368.102-.009.004zM77.347 8.11l.013.132-.132.013-.013-.132.132-.013zm-.929-.409c.141.034.132.03.192.162h-.043c-.051.043-.072.043-.175.064-.047-.03-.013-.013-.094-.038l-.055-.128c.102-.017.124-.021.175-.06zm-1.01 1.741c-.047.077-.013.055-.089.009l.089-.009zm-4.444 1.324v.043c-.077-.021-.038-.004-.089-.038l.089-.009v.004zm-1.138-.26c.043-.038.038-.03.128-.055 0-.106.008-.111.03-.183.081.021.043.004.094.038.064.072.081.064.055.128-.072.072-.2.158-.294.204l-.008-.089h-.043s.026-.03.043-.043h-.004zm-.132.549h-.043c-.043.043-.038.034-.128.06l-.017-.179h.043c.073.158.051-.047.145.119zm-.187-.609l.098.081c-.115.051-.149-.013-.098-.081zm-.511.268a2.02 2.02 0 0 0 .405.008l.021.221c-.179.021-.354.098-.396.081-.047-.06-.055-.141-.068-.264.013-.017.026-.034.043-.047h-.004zm.013 7.365c-.081.072-.2.098-.345.119-.064-.077-.094-.068-.149-.166.09-.025.085-.017.128-.055.128.009.332.038.362.06h.043l-.043.043h.004zm-.183-6.726c.106-.068.03.017.081-.098-.06-.026-.098-.038-.141-.077l.264-.068.064.217c-.145.026-.166.068-.264.021l-.004.004zm.856.102c-.106-.055-.2-.004-.277-.111.124-.06.081-.013.124-.145.085.047.26.064.324.149-.081.068-.034.06-.17.102v.004zm5.526 10.638c-.043.038-.038.03-.128.055-.047-.03-.013-.013-.094-.038l-.013-.132.264-.021c-.008.094 0 .085-.034.136h.004zm2.808 1.452c0-.106.008-.111.03-.183h.043c.021.098.03.102.06.17l-.132.013zm.477-.175l-.013-.132c.077.055.051.026.102.123l-.09.008z"/><path d="M79.69 8.31c.017-.068.021-.077.03-.183-.081-.034-.081-.051-.183-.072-.055-.03-.077-.03-.183-.03l.017.179c.153.038.141.085.324.106h-.004zm-.128 1.618l.315.034c-.008-.072-.021-.102-.102-.14-.055.055-.119.077-.209.106h-.004zm-7.413 1.331l.06-.094-.094-.008c.017.068.021.081.034.102zm-.891.328l.064.217.221-.021-.017-.179a.82.82 0 0 0-.268-.021v.004z"/><path d="M71.723 11.771c.068.043.098.081.132.106l.179-.426c-.06-.085-.017-.153-.179-.226-.06.196-.14.268-.132.549v-.004zm28.878-3.981c.089-.17-.068-.162.251-.2.128-.247.256-.336.49-.383h-.788v.634s.03 0 .051-.004v-.043l-.004-.004zm7.119-.843s-.038.009-.055.009h.06v-.009h-.005z"/><path d="M113.366 8.778a3.7 3.7 0 0 0-1.777-1.452c-.464-.187-1.014-.311-1.636-.383-.094.255-.055.532-.439.566-.179-.098-.358-.038-.468-.226.085-.098.106-.14.106-.324-.094-.009-.085 0-.136-.034-.03-.034-.026-.021-.034-.051-.094 0-.184-.009-.282-.009h-.021c-.017.004-.038.009-.068.004l-.358.013v.021l.098.081-.089.009c-.12.081-.473.132-.793.158-.042-.068-.064-.089-.085-.149l-.511.119c-.631.17-1.227.366-1.794.592s-1.027.451-1.385.677V7.207h-1.137c-.188.192-.401.366-.584.468l-.311.026c-.072.051.021.149-.026.226a2.16 2.16 0 0 1-.677.417c-.072-.043-.183-.03-.315-.017-.022.043-.056.094-.094.145v3.303c.17-.336.417-.668.865-.749.017.315.021.413.102.66.422.068.464.289.678.609l.187.119c.021.094-.102.234-.06.362l.192.162c.055.102.153.507.188.609-.128.06-.141.094-.346.119-.37.277-.784.064-1.12.456-.119-.051-.124-.089-.277-.111-.111.226-.222.221-.409.285v9.834h3.144V10.787c.316-.157.716-.328 1.202-.507s1.001-.328 1.555-.438a8.18 8.18 0 0 1 1.606-.17c.946 0 1.657.187 2.13.558s.789.975.946 1.809.239 1.95.239 3.346v8.748h3.178V18.39h-.157c-.09.038-.435.183-.512.268-.093.102-.068.243-.196.328l-.03-.353c.03-.047.013-.013.039-.094.238-.128.562-.264.86-.383v-2.942c0-1.507-.089-2.793-.268-3.853s-.486-1.92-.912-2.584h-.008zm-11.972 12.741l-.013-.132.132-.013.013.132-.132.013zm-.184-8.246c-.077.034-.043.013-.085.051-.124.06-.081.013-.124.145-.029.051-.021.043-.034.136l.222-.021c.046-.107.063-.107.063-.273-.017-.013-.034-.025-.046-.043l.004.004zm21.379-5.959c-.013-.149-.009-.264.012-.358l-.22.021c-.064.128-.102.119-.107.324l.09-.009c.059.034.11.03.225.026v-.004zm2.404 8.139c-.081-.021-.043-.004-.094-.038-.077.034-.043.013-.085.051-.038.068-.03.149-.021.268l.178-.017c.022-.077.026-.145.022-.268v.004zm1.593-6.343l-.136-.524c-.179 0-.226-.051-.303.115.158.17.128.396.439.409zm-2.933-1.935l-.178.015.016.178.178-.015-.016-.178zm.254-.115l-.178.015.011.131.178-.015-.011-.131zm2.82 2.62c-.017.03-.022.038-.026.06l.166.013-.013-.128c-.089.026-.085.017-.127.055zm-1.649-2.001l-.008-.089c-.137-.038-.167-.098-.243-.204l-.179.017.064.217c.174.013.166.055.362.06h.004zm.754-.067a.78.78 0 0 0-.026.226l.179-.017-.008-.089c.03-.051.021-.043.034-.136l-.179.017zm4.065 2.213l.008-.247c-.034.043-.047.102-.038.23l.03.021v-.004zm-1.641-.012c.03-.047.013-.013.039-.094-.06-.064-.094-.192-.158-.255v-.043l-.183.017c-.03.149-.132.285-.107.409l.141.013.162.017c.038-.021.077-.038.102-.064h.004zm.414.128l.213.026a.14.14 0 0 0-.039-.068c-.055-.03-.076-.03-.183-.03v.072h.009zm-2.173-1.896c.03-.051.021-.043.034-.136-.09-.034-.128-.051-.188-.119l-.179.017c.035.183.09.213.162.345.056-.03.128-.064.171-.102v-.004zm.687 7.398l-.131.011.007.089.132-.011-.008-.089z"/><path d="M123.178 6.905v-.017l-.486.034c.064.055.119.119.277.132.06-.128.03-.115.209-.153v.004zm4.239 8.161c-.089-.098-.106-.221-.149-.311l-.094-.03c-.106.179-.353.272-.605.323-.081-.123-.102-.179-.285-.2-.026.06-.039.098-.077.14.051.077.09.106.149.166l-.221.021-.009-.089c-.038-.051-.072-.209-.111-.26-.059-.034-.11-.03-.225-.026-.013.017-.026.034-.043.047l.021.264-.179.017.013.132.264-.021c.166.183.401.157.486.447-.132.081-.222.098-.243.29.038.043.017.013.051.085l.222-.021c.068-.183.375-.685.609-.724.051.055.026-.017.128-.055l.055.128c.056-.03.128-.064.171-.102.059-.077.059-.094.068-.23l.004.008zm.426.766c.213-.008.673-.2.729-.375-.056-.055-.077-.123-.107-.213-.204 0-.273.021-.533.047.035-.204.077-.072.162-.192.013-.017.017-.03.026-.043-.009 0-.013-.008-.021-.013l-.328-.123c-.06.128-.184.187-.192.4.119.051.162.072.362.06.017.136.043.119.017.179-.081.115-.106.077-.111.277l-.004-.004zm-3.212.592l-.09.009c.073.051.026.026.09-.009zm1.401.191l.179-.017-.009-.089c-.106 0-.11-.008-.183-.03l.013.132v.004zm-3.868-9.63l-.179.034v.034c.051-.009.115-.038.179-.068zm2.407 8.727l-.443.038.021.221.09-.008c.072.043.183.03.315.017.013-.017.025-.034.043-.047l-.022-.221h-.004z"/><path d="M121.946 7.1c-.081-.017-.11-.03-.153-.043l-.115.021.009.089-.179.017c-.073.175-.175.192-.188.417.196.017.171.081.367.102.025-.328.242-.281.259-.604zm.55 1.205c.098.094.209.077.405.055.051-.038.072-.043.175-.06.098.268.238.183.43.319h-.043c-.051.089-.123.14-.204.2l.017.179.307-.072c.029.064.038.072.059.175-.059.089-.068.153-.025.226.055.03.076.03.183.03.072-.128.094-.136.298-.162l.064.217c-.213.013-.247 0-.298.162-.004.009 0 .026-.009.038l.085-.004h.371a1.09 1.09 0 0 1-.064-.204l.35-.077c.081.145.072.192.285.2.072-.081.175-.119.298-.162.094.204.375.192.639.166a.24.24 0 0 1 .043-.047c-.034-.277.013-.272-.004-.579l-.333-.238c-.072-.094-.051-.264-.119-.345-.128-.081-.273-.136-.46-.14-.068.209-.149.268-.422.302-.017-.013-.034-.026-.047-.043l-.076-.349c.11-.081.106-.043.076-.14-.064-.153-.102-.183-.285-.2-.269.183-.541-.136-.771-.158-.392-.034-.81.43-.976.622.034.077.013.043.051.085v.004z"/><path d="M122.317 7.782l.089-.009-.008-.089c.03-.051.021-.043.034-.136-.081-.034-.081-.051-.183-.072-.026.06-.038.098-.077.14.034.077.013.043.051.085l.098.081h-.004z"/><path d="M122.138 7.799l-.017-.179c-.089.026-.085.017-.128.055h-.042l.013.136.178-.017-.004.004zm1.496 8.442c.076.021.144.025.268.021.017-.068.021-.077.03-.183-.017-.013-.034-.026-.047-.043l-.222.021c-.017.068-.021.077-.029.183zm2.42-9.183c.102-.013.127.03.315.017-.017.111-.026.166.068.264.09.068.171.055.239.158-.141.068-.115.051-.115.234.093.009.085 0 .136.034.081.085.162.226.209.341-.358.294-.034.404.055.622.051.128-.055.14-.064.272.081.021.043.004.094.038.141-.043.439-.145.477-.175.039.043.017.013.051.085-.106.072-.051-.004-.076.14l-.222.021c-.06.115-.094.111-.111.277.26.111.307.341.656.345.047-.234.175-.221.179-.507-.115-.043-.17-.047-.238-.158.115-.162.034-.4.081-.587.14.043.243.064.451.051-.012.328-.187.404-.208.69l.179-.017c.093.123.234.136.332.238l.059.175.09-.009c.051.021.771.179.818.153l.089-.009-.021-.221.132-.013c.051-.106.145-.136.213-.204l.03-.707c-.115-.021-.149-.158-.29-.2v-.043c.235-.038.299-.072.282-.336h.034l.017-.473-1.858-.302-.584-.081c.017.081.039.094.098.162-.102.021-.106.03-.174.06.038.153-.034.234-.098.409-.017-.013-.034-.026-.047-.043-.077-.085-.145-.247-.209-.341a.59.59 0 0 0 .256-.277l-1.487-.166a1.17 1.17 0 0 1-.132-.009c-.03.102-.073.128-.077.306l.179-.017c.055-.136.034-.149.204-.196l-.012-.004zm2.671 1.422c-.072-.089-.128-.115-.239-.158l.081-.098c.154.021.124-.038.184.072.038.051.042.072.059.175l-.089.009h.004zm.558-.272c-.038-.051-.008-.043-.017-.179a1.36 1.36 0 0 1 .452.051c-.017.068-.022.077-.03.183l-.132.013.013.132-.132.013-.162.192c-.03.051-.022.043-.034.136-.094-.009-.086 0-.137-.034-.038-.043-.017-.013-.051-.085a.63.63 0 0 0 .23-.421zm-.584-.528l.052.085c.025.038.059.158.11.26l-.089.009v.043s-.03-.026-.043-.043c-.119-.047-.132-.038-.191-.162-.039-.051-.043-.072-.06-.175l.221-.021v.004zm-.417-.187c.128.06.115.03.153.209-.132.072-.127.004-.11.277h-.043c-.055.064-.072.072-.17.106l-.022-.221c.073-.106.137-.264.192-.375v.004zm-.413-.145l.098.081c-.115.051-.149-.013-.098-.081zm-.384.749c.034-.17.047-.204.247-.243l.017.179c-.102.077-.093.111-.255.158-.017-.013-.034-.026-.047-.043.013-.017.025-.034.042-.047l-.004-.004zm-.23-.068c.038.183.064.145.115.302-.013.017-.025.034-.042.047-.115-.085-.205-.162-.252-.336l.179-.017v.004zm2.365 9.212c-.102.072-.256.009-.303.115l.03.353c.162.089.311.158.349.417.231.013.171.089.409.098.018-.064.035-.221.064-.273.052-.038.073-.042.175-.06.004.447-.17.63-.085 1.077-.243.06-.298.153-.609.187-.017-.013-.034-.026-.047-.043-.051-.319.008-.345.034-.63-.141-.055-.141-.158-.205-.294l-.366-.102c-.034-.192-.09-.345-.217-.426-.218-.141-.669-.123-.793-.379h.043c.021-.068-.051-.085.038-.098.162.111.379-.349.545-.404.111.06.192.008.311-.026-.017-.175-.038-.196.064-.272.218.26.328-.285.524-.136.15.038.111.081.277.111 0-.008.005-.021.009-.03-.213-.328-.486-.613-.822-.856l-.103.077c-.093.051-.315-.025-.485.085v.043c-.111.111-.273.26-.367.387l-.315-.017c-.068-.089-.136-.149-.2-.251-.158.072-.311.051-.49.043-.026-.089-.017-.085-.056-.128-.055-.03-.076-.03-.183-.03-.013.017-.025.034-.042.047.012.128.034.187.068.264-.213.017-.362.017-.431.17-.042.085 0 .136-.029.183a2.19 2.19 0 0 1-.286.336l-.132.013c-.072.089.038.238-.013.358l-.17.102a1.14 1.14 0 0 0-.047.081c.579.187.984.417 1.201.69.226.281.337.681.337 1.2 0 .651-.145 1.166-.439 1.537s-.72.638-1.287.792c-.562.157-1.273.238-2.13.238a21.7 21.7 0 0 1-1.64-.085l-2.113-.221-1.926-.234-.137 2.533 1.909.319 2.233.255 2.011.102c1.419 0 2.624-.17 3.617-.507s1.751-.902 2.284-1.69l.038-.068c-.136-.043-.273-.072-.337-.255.03-.047.013-.013.039-.094a.24.24 0 0 1 .047.043c.038.043.029.038.055.128.192-.025.179-.055.303-.115v-.043c.042-.085-.009-.077.029-.136.034-.026.09-.043.154-.055.311-.702.468-1.558.468-2.575s-.161-1.767-.464-2.375c-.098.187-.256.409-.413.519l.017.004zm-10.686 4.589c-.042.038-.038.03-.128.055-.017-.013-.034-.026-.046-.043.017-.098-.009-.153.025-.226.03-.102.034-.068.077-.14.128.068.162.115.204.294l-.128.055-.004.004zm.46.14c-.051-.03-.042-.021-.136-.034l-.013-.132.179-.017.017.179h-.042l-.005.004zm1.04.673c-.136-.115-.209-.094-.251-.336.046-.111-.026-.272-.034-.4.136.081.11.14.323.149.039-.119.056-.136.162-.192.115.179.226.162.384.281-.196.204-.201.426-.584.498zm6.408-1.315l-.021-.264.089-.009c.085.115.124.102.162.298l-.226-.026h-.004zm1.568 1.069c-.064-.149-.137-.149-.205-.294.034-.06.03-.111.026-.226l-.264.021c-.086-.115-.124-.102-.162-.298.14-.098.055-.175.247-.243.017.013.034.025.047.042a.38.38 0 0 0 .307.464l.136.524-.132.013v-.004zm.123-.634s.026-.034.043-.047c.021-.081.004-.043.038-.094.103.14.294.136.503.136l.013.132c-.264.017-.392-.06-.592-.128h-.005zm.904-.392c-.052-.064-.06-.179-.073-.306.115.115.124.204.119.345-.017-.013-.034-.026-.046-.043v.004zm.357.013c-.038-.051-.042-.072-.059-.174.077-.034.042-.013.085-.051.098.043.085.021.145.123-.068.047-.119.175-.171.102zm-4.876-5.297l-.178.015.008.089.178-.015-.008-.089z"/><path d="M119.914 16.007c.835.302 1.883.558 3.145.762l1.444.255a.48.48 0 0 1-.098-.175h.042c.282.328.721-.128.921-.217.106-.047.272.013.439-.081l-.013-.132.268.021-.008-.089c-.09-.072-.196-.175-.247-.29.14-.068.115-.051.115-.234l-.179.017c-.047.119-.039.132-.162.192-.077-.123-.06-.14-.239-.158l-.034.136c-.047.098-.013.102.021.221.141 0 .213.03.32.06-.068.136-.094.17-.294.204-.107-.034-.328.089-.481.132-.064.017-.188-.102-.235-.115-.226-.051-.362.094-.524.136l-.017-.179c-.145-.034-.379-.013-.579.004-.192-.077-.409.021-.469-.272.175.03.158.115.273.064.106-.077.068-.026.072-.183-.072-.119-.055-1.056-.068-1.29.29-.166.349-.285.217-.6.09-.06.077-.072.213-.107.056.03.077.03.183.03l.145.124v.042c-.183.06-.277.115-.281.336l.136.034c.103.064.239.064.405.055 0-.2.056-.311.009-.405-.06-.119-.111-.119-.166-.2l-.776-.149c-.008.008-.017.017-.025.03v-.034l-1.249-.311c-.609-.191-1.014-.421-1.218-.694a1.43 1.43 0 0 1-.209-.421v.034c-.145.132-.213.243-.413.349-.09-.204-.209-.209-.264-.468.119-.111.136-.243.187-.417a2.02 2.02 0 0 0 .405.008l-.013-.132h.004v-.038c0-.609.141-1.077.422-1.401s.677-.553 1.184-.677c.128-.03.273-.047.405-.068-.064-.081-.119-.162-.255-.2-.06-.034-.111-.03-.226-.026-.128-.494-.443-.809-.648-1.281.119-.009.205-.021.264-.068.03-.047.013-.013.039-.094h-.043c-.166-.217-.452-.085-.528-.443l-.311.026c-.03-.064-.039-.072-.06-.175.102-.051.124-.119.115-.209l-.298.085c-.959.315-1.734.839-2.331 1.571s-.894 1.75-.894 3.057c0 1.128.204 2.005.609 2.635s1.027 1.098 1.857 1.401l-.004.008zm.908-2.286h.042c.03.175.098.345.218.426.051.03.042.021.136.034.124.004.294-.149.473-.221.025.034.166.277.204.294.064.034.179 0 .226.025-.064.089-.076.098-.03.183.171.102.213.009.247.29-.089.06-.076.072-.213.106 0 .175-.008.157.026.311-.187.064-.516.204-.592.366-.115.238.064.272-.286.336-.038-.341-.017-.332.081-.588.077.021.145.026.269.021l-.017-.179c-.064-.026-.149-.026-.23-.068l-.009-.089c-.221-.102-.396.153-.55-.132-.106-.153.035-.162.018-.315-.013-.123-.128-.128-.154-.209-.06-.192.077-.464.128-.592h.013zm9.087 8.194l-.063-.009.008.107.055-.098z"/><path d="M125.219 17.181l.293.077c-.004-.03-.021-.064-.055-.102-.055-.03-.077-.03-.183-.03-.013.021-.038.034-.055.055zM84.274 9.655l.132-.013c.03-.111.013-.072.077-.14l-.017-.179-.132.013.008.089c-.043.064-.055.132-.068.23zm-.17-.388c.051.03.043.021.136.034.043-.098.055-.085.068-.23-.107-.034-.128-.021-.187-.119.115-.089.149-.149.149-.306l-.319.349c.115.077.081.175.158.272h-.004zm-1.47 2.597l-.03.123h.038l-.009-.123zm11.764-1.976l-.178.015.011.131.178-.016-.011-.131z"/><path d="M85.553 8.961c.026-.106-.004-.077.03-.183.038.043.017.013.051.085.038.043.03.038.055.128l.179-.017.008.089c-.141-.013-.111 0-.183-.072l-.179.017-.013.358c-.183.017-.285.026-.358-.013-.183-.055-.128-.136-.371-.145-.017.068-.021.077-.03.183.136.068.482.226.567.353-.051.089-.119.494-.124.634l.09-.009c.324.132.554-.472.775-.336h.043l-.034.132c-.175.047-.141.017-.162.192.171.162-.158.387-.034.63.077.106.025.068.183.072.021-.107.038-.102.072-.183.077.047.141.064.2.064a2.71 2.71 0 0 1 .831-.83c.401-.247.907-.404 1.504-.494l.034-.034.026.026a7.1 7.1 0 0 1 .993-.072h.047c0-.068.013-.136.03-.23l.311-.026.008.089a.43.43 0 0 0-.077.179c.797.03 1.449.166 1.96.417.085 0 .17-.136.209-.153l.848-.03a3.36 3.36 0 0 1 1.231-.243c.196.009.545-.234.793-.158.141.043.102.175.328.196.09-.153.081-.217.328-.251a5.12 5.12 0 0 0-1.653-1.515c-1.082-.63-2.535-.945-4.363-.945-1.547 0-2.829.234-3.856.698l.008.298-.09.009v-.043c-.043-.047-.051-.102-.064-.192l-.345.179a5.12 5.12 0 0 0-.78.549c.008.089.008.196.008.324.32.149.584.264.963.272zm-.196 1.358l-.017-.179c.038.038.077.115.102.17l-.09.009h.004zm4.602-1.558c.038.043.03.038.055.128l-.09.009.034-.136zm-.822.294v-.043c-.098-.055-.102-.051-.153-.166l.132-.013c.06.089.072.077.106.213l-.09.009h.004zm-.528-1.473c.034-.03.149-.089.256-.158 0 .392.409.579.533.979-.162.106-.264.115-.379.255.081.06.047.03.051.085-.09.043-.132-.013-.315-.017.034.234.158.255.073.306-.043.081-.051.272-.102.366-.149-.128-.328-.102-.515-.268l.043-.047c.106.034.179.055.32.06.047-.111.068-.132.06-.319a.78.78 0 0 0-.226-.026c-.094.106-.03.055-.217.064l-.021-.221c-.183.009-.204.013-.277-.111.439-.17.32-.749.72-.954v.004zm-1.014.179l.009.089-.09.009-.008-.089.089-.009zm-3.968 14.192l.2.281c.034-.03.043-.077.051-.183.03-.055 0-.043-.017-.179-.128.021-.17.051-.234.077v.004zm11.422-10.689a.78.78 0 0 0 .226.026c.038-.034.128-.03.213-.106-.179-.013-.2-.068-.366-.102-.051.089-.055.043-.072.183z"/><path d="M94.692 9.732c.098.043.085.055.23.068.017-.068.021-.077.03-.183l-.098-.081-.179.017.017.179zm.899 1.574c.23.03.158.128.413.145.017-.068.021-.077.03-.183-.196-.06-.256-.158-.464-.183l.021.221zm1.227 1.278c.068-.14-.038-.272-.081-.438-.204-.013-.217-.077-.409-.098l-.017-.179c.141-.051.068.017.124-.102-.072-.043-.043-.047-.141-.077-.106.158-.285.123-.328.341.068.034.251.128.192.162-.043.038-.013.017-.085.051-.115-.072-.315-.055-.413-.145-.077-.068-.068-.251-.162-.298l-.358-.013c-.268-.115-.29-.532-.805-.511-.243.187-.652-.226-1.048-.221-.026.064-.034.098-.06.123.128.243.243.502.332.805.247.868.371 2.031.371 3.495s-.102 2.695-.302 3.631c-.162.745-.456 1.32-.878 1.745.06.034.115.072.188.102-.013.017-.026.034-.043.047v.043c-.085-.009-.136.008-.307.025v-.043l.043-.072c-.072.068-.141.14-.226.196a.68.68 0 0 1-.094.055.35.35 0 0 1 .064.017v.043l-.128.013v-.03c-.605.362-1.453.545-2.548.545-1.218 0-2.126-.213-2.722-.643s-.997-1.107-1.201-2.043-.302-2.146-.302-3.631.124-2.631.371-3.495a3.89 3.89 0 0 1 .277-.702c-.166.008-.337.017-.507 0l-.017-.179c.064-.14 0-.192-.034-.4l-.179.017c-.153.328-.486.796-.809.962l-.443.038c-.064.03-.239.204-.388.166l-.102-.123c-.302-.123-.614-.004-.886.077l.021.221c.038.043.017.013.051.085.26.098.281.068.545.085v.043c-.128.132-.013.183-.098.366-.026.051-.273.272-.328.341l-.311.026.017.179a.67.67 0 0 1 .243.247h-.043c-.043.043-.038.034-.128.06-.09-.072-.256-.175-.337-.234-.081.685-.124 1.422-.124 2.226 0 2.048.226 3.738.677 5.066l.111.294a.45.45 0 0 1 .166-.115c.051.077.064.068.102.17.038.051.043.072.06.174-.102.017-.158.043-.209.064l.222.447-.085-.281c.098-.064.094-.081.26-.111.051.03.043.021.136.034.204.396.733.502.801 1-.03.047-.013.013-.038.094l-.09.009c-.072-.179-.136-.209-.375-.192l-.034.136c-.017.051-.013.098 0 .162a4.85 4.85 0 0 0 1.261 1.073c.967.575 2.267.89 3.886.949-.068-.111-.141-.2-.205-.336.017.013.034.026.047.043.162-.055.2.013.447.004l.068-.23c.124.043.234.162.328.196.239.085.379-.085.494.047l.192.162h-.043a.76.76 0 0 1-.09.115l.699-.047-.03-.068c.013-.017.026-.034.043-.047l.264-.068c.017.06.043.106.064.145.98-.123 1.815-.358 2.501-.707-.06-.06-.098-.115-.132-.23.371-.008.601-.068.728-.375a.47.47 0 0 0 .243.068c.792-.626 1.376-1.482 1.734-2.575.439-1.328.66-3.018.66-5.066 0-1.043-.072-1.988-.209-2.831a.4.4 0 0 1-.119-.064l.017-.009zM83.67 19.663c.03-.123.064-.136.115-.234.038.051.043.072.06.175-.064.03-.072.038-.175.06zm.294 1.315c-.055.043-.106.051-.217.064l-.008-.089c.051-.064.081-.149.115-.234l.311-.026v.043c-.119.089-.051.162-.2.243zm.69.251c-.141-.179-.362-.243-.311-.507.243.043.145.111.29.243.111.102.32.013.413.145l-.392.123v-.004zm.873-.209l-.021-.221c.098.102.132.157.021.221zm.797-.068c-.055-.064-.051-.034-.102-.123-.064-.085-.043-.123-.021-.221.115.047.03-.021.098.081.051.06.085.166.111.26l-.09.009.004-.004zm.601 2.805v-.043c-.047-.055-.051-.107-.068-.217.102.068.119.098.158.256l-.09.008v-.004zm.32.06c.09-.06.077-.072.213-.106.017.013.034.026.047.043l.013.132c-.128 0-.196-.013-.273-.064v-.004zm.963-1.243c-.081.072-.141.094-.217.064-.2-.081-.171-.315-.307-.464-.192-.209-.341-.021-.401-.502l.222-.021c.166.221.281.532.426.813.085.025.281.051.366.102l-.09.008zm4.405 1.315c-.119.072-.119.072-.136-.034l.179-.017v.043h-.043v.008zm1.099-1.213c-.034-.072-.051-.136-.068-.264l.089-.009c.068.132.026.098.188.119l.013.132-.222.021zm2.654-10.098c-.064.034-.136.051-.094-.038.094.008.085 0 .136.034h-.043v.004zm.153.213c.051-.034.089-.055.123-.102a.3.3 0 0 1 .102.17l-.222.021-.008-.089h.004zm.166 3.959l-.013-.132c.149.026.064-.025.141.077l-.128.055zm37.901.549l-.089.008.007.089.089-.008-.007-.089zm9.456-8.266l.013.034-.013 1.175c.209-.06.396-.183.588-.196.089.106.136.145.324.149.012-.017.025-.034.042-.047l-.013-.132.222-.021v-.043c.072-.034.038-.013.081-.051.038.043.03.038.055.128h-.042c-.047-.03-.013-.013-.094-.034l.009.089c-.03.051-.022.043-.035.136.077.021.145.026.269.021l.013.132-1.377.119c-.012.026-.029.051-.046.072v1.32c.157-.034.306-.034.443.047l.2.251c.047.089-.051.166.021.264.047.026.183.043.23.068h-.042c-.064.055-.179.064-.307.077-.158-.132-.332-.128-.545-.102v1.401s.017 0 .029-.004c.077.06.094.06.231.068-.013.153-.094.179-.111.277-.022.128.098.183.068.264-.043.038-.013.017-.085.051a.69.69 0 0 0-.132-.285v1.422c.046-.017.089-.038.136-.064l.013.132-.149.047v4.781l-.435.192.145.243c-.273.013-.307.026-.286.294.15 0 .273-.06.363.06-.09.102-.115.213-.243.29v-.043c-.179-.157-.12-.298-.473-.272-.039.192-.119.289-.328.341-.013-.179-.064-.366-.128-.545l-.456.157c-.034.013-.068.017-.102.03.051.166.157.336.209.536-.12.047-.184.115-.252.2-.29.038-.434.089-.63-.034-.064-.055-.043-.149-.107-.213-.102-.106-.298-.153-.46-.221a9 9 0 0 1-1.146.077c-.75 0-1.342-.123-1.785-.362v.043l-.397.081c-.059-.094-.281-.311-.332-.238-.064.055-.034.051-.123.102-.073-.106.004-.051-.141-.077.03-.174.119-.128.158-.238.051-.145-.047-.255-.03-.353l.17.055-.17-.277h-.064c-.06-.081-.073-.068-.107-.209l.107.043a3.86 3.86 0 0 1-.256-.89c-.123-.749-.187-1.728-.2-2.933-.009-.008-.017-.017-.026-.021l.026-.026v-.298c-.051.047-.021.026-.094.06l-.013-.132.103.025v-1.992c-.051.106-.128.179-.345.2-.141-.06-.546.055-.627.008-.017-.013-.034-.025-.047-.043.179-.115.256-.353.358-.524.239.025.201.145.418.187.051.008.17-.051.243-.085v-.251l-.047.008-.102-.123c-.132-.145-.069-.247-.039-.443-.14-.085-.153-.119-.409-.098v-.043l.158-.191c.085.081.102.077.273.064l.038.443c.098.026.081.017.128.064v-.583a.49.49 0 0 1-.171.03c-.034-.583-.17-.392-.294-.822.098-.064.094-.081.26-.111l-.017-.179c.166-.072.166-.106.149-.323-.14-.153-.021-.273-.128-.434-.098-.158-.264-.094-.34-.328.012-.017.025-.034.042-.047.132.047.35.017.499-.017v-.294l-.345.03-.009-.089c-.03-.013-.132-.03-.136-.034-.2-.081-.188-.055-.209-.341.234-.145.328-.243.699-.281v-2.16h-3.145v2.014a1.81 1.81 0 0 1 .162.358c.132-.055.124-.098.256-.158.017.013.034.026.047.043-.034.106-.021.128-.119.187-.107.047-.239-.089-.265.021-.029.051-.021.043-.034.136.094.081.307.464.307.464-.064.072-.077.043-.124.145-.029.055-.029.077-.029.183a.24.24 0 0 1 .047.043c.136-.008.123.021.178-.017l.124-.145.366.102c-.021.081-.004.043-.038.094l-.204.243c-.294.026-.397-.03-.631-.034l-.051.085v.204c.175.047.447.068.541.2l-.089.008c-.073.06-.077.008-.128.055-.103.166-.022.243-.286.294-.013-.013-.021-.013-.034-.021v.4c.013.026.017.051.034.115h-.034v1.286a.18.18 0 0 1 .056.004c.038.043.029.038.055.128.17-.008.341 0 .4-.034.15-.123.017-.14.205-.196.098.017.06-.017.217-.064l-.021-.221-.09.008c-.055.119.013.051-.123.102.008-.094 0-.085.034-.136.187-.162.379-.132.409-.438l.222-.021c.093.26.187.136.251.336-.337.038-.222.119-.298.162 0 0-.243-.043-.358-.013l.013.132c.136.068.085.149.242.204.111.043.184-.064.222-.021.094.064.115.128.158.255-.184.06-.171.107-.15.324.018.013.035.025.047.043l.265-.068c.046.107.272.332.213.383-.064.085-.035.064-.171.102-.102-.128-.4-.051-.532.047l-.337.251c-.043.06-.009.187-.068.23l-.264.021c-.222.123-.354.26-.588.362v.626.17h.106c.162.179.273.102.307.464.017.013.034.025.047.043.149.025.064-.026.14.077h-.042c-.034-.021-.064-.051-.098-.077-.183.03-.162.004-.209.153-.026.055.034.187.072.306.073.017.111.026.226.026.115-.153.171-.311.418-.349.077-.077.153-.094.302-.115l.009.089c.119.136.081.238.081.438l.179-.017.145.123c0 .149-.009.077.021.221l-.09.008c-.081-.081-.068-.068-.23-.068l.017.179c.03.009.179 0 .226.026.132.077.022.226.205.294.14.064.14-.009.264-.068v.043c-.038.055-.081.132-.115.187-.213-.047-.303-.123-.499-.089l.022.221c.047.047.281.23.289.243.115.162 0 .341.171.43.111.064.324.06.456.094l.008.089c-.183.055-.298.289-.315.473.102.068.119.098.158.255.149.026.063-.026.14.077-.068.145.056.481.004.579-.093.183-.264.064-.276.426l.178-.017c.056-.136.035-.149.205-.196.038.089.064.204.077.349-.03.047-.013.013-.039.094-.23.068-.174.179-.379.255-.072-.089-.136-.098-.196-.204.03-.047.013-.013.038-.094h-.042c-.047.098-.23-.008-.452-.047l-.013-.132c.09-.094.035-.209.107-.323.038-.06.124-.009.175-.06.076-.072.17-.298.187-.417-.166-.14-.013-.204-.081-.396l-.405-.545c-.161-.162-.605-.221-.749-.426-.231-.319-.209-.758-.409-1.124-.073-.132-.184-.234-.303-.324.051 1.358.192 2.512.413 3.453.294 1.239.827 2.158 1.607 2.754s1.9.894 3.365.894c1.125 0 2.101-.145 2.923-.438s1.594-.643 2.318-1.047v1.149h3.11v-8.208c-.077-.034-.166-.043-.221-.004-.243.072-.201.183-.516.221-.047-.03-.013-.013-.094-.038-.157-.221-.358-.328-.498-.583l.089-.008.857.06.162-.192.179-.017c.017.025.029.06.046.094v-3.627c-.034-.072-.055-.158-.068-.302.026.004.047.013.068.017V7.22h-3.11v1.826l-.021-.013zm-9.493 7.377h-.042c-.073.068-.179.094-.303.119-.089-.106-.174-.111-.243-.247.179-.106.069-.136.064-.272a.71.71 0 0 1 .269.021c-.03.106-.064.196-.111.277.14.013.111 0 .183.072.073-.043.073-.123.128-.055.03.03.064 0 .051.085h.004zm-.008-.089l-.009-.089.09-.009.008.089-.089.009zm1.039-2.946c-.038-.107-.115-.124-.059-.175.059-.251.128-.111.289-.247l.09-.009c-.03.128-.013.175.025.311-.208.021-.221.06-.345.119zm.213-2.163l.098.081c-.021.081-.004.043-.038.094-.068.094-.055.081-.213.107.009-.158.038-.183.06-.319l.089-.008v.043l.004.004zm-.208-.919l.183.072-.081.098c-.145-.06-.111-.051-.102-.17zm.179 1.545s.025-.034.042-.047c0 .311.102.413.239.694l-.09.008c-.021-.166.009-.157-.106-.213v.043s-.03-.026-.043-.043c-.038-.043-.03-.038-.055-.128l-.179.017-.013-.132c.09-.072.098-.136.205-.196v-.004zm-.431-.319c-.021.081-.004.043-.038.094l-.034.136c-.081-.021-.043-.004-.094-.038h-.043c.009-.098 0-.064-.021-.217l.179-.017s.034.026.047.043h.004zm-.145-2.712l-.089.009c-.068-.102-.09-.119-.115-.302.175.043.183.077.204.294zm-1.176.37c.12.055.052-.013.103.123l-.09.009-.013-.132zm.137.524c-.017-.238-.009-.166-.077-.349h.043c.059.03.11.026.226.021-.013.166-.056.196-.107.324l-.089.009.004-.004zm.157.255c.141.004.171.03.273.064l.009.089-.09.009c-.038-.026-.102-.051-.14-.077-.039-.043-.017-.013-.052-.085zm-.272 1.499a.54.54 0 0 1 .289.243l-.178.017c-.073-.106.004-.051-.141-.077.017.166.068.179-.158.238l-.051-.085c.124-.094.243-.247.239-.332v-.004zm.95 1.166c-.132-.089-.256-.145-.46-.14-.026.149.025.064-.077.14-.119-.183-.396-.243-.609-.306v-.043c.102-.051.064-.055.166-.102.268.23.268-.191.618-.098.102.03.081.107.277.111a2.13 2.13 0 0 0-.137-.524c-.119.013-.204.017-.268-.021.136-.055.149-.089.345-.119.034.068.124.153.153.209l.022.264c.034.055.2.094.238.158.094.162-.187.289.209.341.064-.111.055-.111.209-.153.03.064.038.072.059.175-.183.136-.132.23-.468.264-.056.043-.107.051-.217.064.017-.136.046-.132-.064-.217h.004zm.14.613l-.012-.132c.136-.017.119-.043.179-.017.038.043.017.013.051.085l-.09.009c-.042.038-.038.03-.128.055zm.277.6c-.081-.021-.042-.004-.093-.038-.039-.043-.017-.013-.051-.085.038-.068.029-.149.021-.268a.48.48 0 0 1 .294.285c-.098.034-.115.043-.171.102v.004zm.554 5.355h-.042l-.009-.085c.039.043.017.013.051.085zm.137 2.086s-.034-.025-.047-.043c-.039-.043-.017-.013-.051-.085l.136.034c-.013.017-.026.034-.043.047v.042l.005.004zm-.103-.707l-.136-.034v-.043c.098-.017.119-.021.17-.06.12-.013.205-.017.269.021-.175.051-.188.149-.303.115zm.478-.668c-.052.081-.098.2-.154.281v-.043a.44.44 0 0 1-.213-.341l.307-.072c.047.102.025.072.102.123-.013.017-.025.034-.042.047v.004zm.059 1.201c.149.026.064-.026.141.077-.111-.03-.073-.013-.141-.077zm.013-.358l-.013-.132c.03-.051.022-.043.034-.136l.179-.017.009.089-.205.196h-.004zm.256-.647v-.043c-.081-.055-.056-.026-.103-.123.094.008.086 0 .137.034.038.043.03.038.055.128l-.089.009v-.004zm2.028 3.308s-.034-.026-.047-.043c-.039-.064-.004-.004-.013-.132l.136.034.009.089-.09.009v.043h.005zm.115-.277l-.013-.132c.038.043.03.038.055.128h-.042v.004zm5.82-9.655v.043c-.077-.021-.039-.004-.09-.038l.09-.008v.004zm-.49 2.094l.132-.013c.051-.038.072-.043.174-.06l.022.221c-.158-.008-.256-.038-.324-.149h-.004zm.315 6.177l.089-.009.009.089c-.124-.021-.077.038-.098-.081zm.17.43l-.012-.132c.102-.047.072-.026.123-.102.017.013.034.026.047.043.038.043.017.013.051.085-.089.06-.077.072-.213.106h.004zm.426-7.45c.039-.072.039-.285.06-.362.051.034.217.226.251.336-.132.043-.149.077-.302.115l-.009-.089zm.158 5.432l-.021-.221.179-.017.013.132c-.077.051-.069.064-.171.102v.004zm.413-4.5h-.042c-.043.098-.022.089-.124.149-.098-.153-.094-.14-.025-.311l.221-.021.009.089c-.09.026-.085.017-.128.055 0 0 .179 0 .094.038h-.005zm.997-4.461c.09.098.09.068-.034.136l.034-.136zm-.123-.392l.089-.008-.021.268c-.038-.043-.017-.013-.051-.085h-.043l.03-.179-.004.004zm-.878-.328c.068.038.149.03.269.021l.012.132c.201.132.328.298.571.396v.043c-.191.038-.179.068-.247.2a2.29 2.29 0 0 0-.503-.136c.03.179.064.17.115.302l-.089.008c-.141-.128-.222-.008-.443.038.013-.264.226-.366.307-.562.055-.136-.052-.341.004-.447l.004.004z"/><path d="M134.34 17.59l-.017-.179-.179.017c-.042.162-.093.115-.106.323l.132-.013c.047-.119.038-.098.166-.149h.004zm1.334 3.503a.79.79 0 0 0-.226-.026l.017.179a.79.79 0 0 0 .226.025l-.017-.179zm-.866-3.278l-.089.008.008.089.089-.008-.008-.089zm-.063-3.788s-.034-.025-.047-.042l-.179.017c0 .128-.038.098.017.179.056.03.077.03.184.03.017-.068.021-.077.029-.183h-.004zm19.045-8.659c-.094.072-.145.038-.264.021-.013-.294-.055-.485-.311-.507-.362.324-.908.004-1.193.149l-.009-.089c.086-.089.077-.136.06-.319l-.179.017c-.089.17-.243.217-.277.426.183.051.269.132.418.187.076-.085.03-.085.128-.055.046.06.055.14.068.264a1.16 1.16 0 0 1-.35.077c-.157-.115-.426-.089-.507-.179.081-.081.069-.068.069-.23l-.09.009c-.051-.026-.085-.026-.119-.021v7.411l.247-.255c.115.089.089.132.281.153.085.277.23.221.277.6.107 0 .111.008.183.03l.009.089-.085.051c-.069.055-.64.115-.908.166v.417l.021-.013.009.089s-.017.03-.03.047v.847h.017l.047.038c.017.294.055.349.341.328.042-.136.119-.183.2-.285.081.021.043.004.094.038.111.136-.064.128.149.166.042-.038.013-.017.085-.051l.017.179h-.042c-.081-.077-.069-.064-.231-.064-.008.226-.115.247-.144.413-.043.251.11.362.14.613.358.038.235.192.426.277.247.106.354-.094.469.226-.179.264.247.69.043 1.022-.056.043-.107.051-.218.064-.081-.051-.191-.06-.319-.06l-.017-.179c-.252-.128-.584-.311-.72-.562l-.039-.443c-.055-.119-.183-.149-.247-.29.294-.379.115-.779-.051-1.141v9.102h3.11V4.942c-.034-.013-.068-.013-.149-.013-.072.192-.03.4-.409.438zm-2.343 15.742s-.026.034-.043.047v.043c-.034-.043-.013-.013-.047-.085l.09-.008v.004zm.656.881c-.213.008-.315-.051-.49.042-.136.072-.081.149-.294.204.013-.017.026-.034.043-.047-.017-.153 0-.264.285-.294.051.03.043.021.136.034.047-.175.162-.217.235-.379l.136.034-.055.404h.004zm1.495-12.094c-.008.085.039.051-.081.098v-.043c.073-.034.039-.013.081-.051v-.004zm-1.099-4.415c.166.038.273.013.324.106.038.064.004.004.013.132l-.222.021c-.094-.128-.132-.098-.111-.26h-.004zm-.013 3.976h-.042l-.056-.123c.12.055.052-.013.103.123h-.005zm-.064-.217h-.042l-.009-.085c.039.043.017.013.051.085zm-.434 1.154c-.094.128-.136-.034-.141-.077.094.013.166.026.23.068l-.089.009zm.341 3.41l-.09.008v.043s-.03-.026-.042-.043c-.073-.111-.022-.115.025-.226.141.089.102.051.107.213v.004zm-.077-3.474c-.081-.021-.043-.004-.094-.038h-.042c.017-.111-.013-.2-.034-.396.089-.077.136-.187.2-.285.243.013.234.106.545.085-.025.098.009.081-.034.136-.132.264-.345.289-.537.494l-.004.004zm.554 4.819l-.098-.081v-.043c.098-.06.072-.051.119-.145l.179-.017a.77.77 0 0 1 .064.217c-.072.034-.136.051-.264.068zm.307-5.206a.54.54 0 0 1 .289.243l-.132.013c-.127-.111-.174-.077-.157-.255zm.311 9.753c-.064-.077-.094-.068-.149-.166.076-.034.042-.013.085-.051.166-.004.204.021.319.06l.009.089-.264.068zm.741-19.684h-1.47c.085.072.188.123.2.166-.136.111-.481.111-.617.098.025-.034.055-.064.081-.098-.081-.021-.043-.004-.094-.038l.221-.021-.008-.111h-.209l-.047.132-.136-.034-.043-.102h-.801v2.673c.166.026.341.098.418.23-.09.085-.102.115-.111.277.209.111.392.498.285.69v.043c-.161-.004-.247-.013-.49 0l.018.179c.2.068.106.179.374.192.069-.17.09-.187.341-.209.256.149.618-.098.618-.098.196.098.251.328.439.409.179.089.933-.375 1.214-.417l.009-.651-.022-.017c-.132-.077-.144-.123-.161-.345-.158.013-.243 0-.358-.013l-.009-.089c.098-.089.094-.209.2-.285.047.038.235.089.354.192v-.745c-.026 0-.055 0-.089-.009-.145-.026-.188-.102-.409-.098-.103.106-.256.272-.371.345-.064-.077-.094-.068-.149-.166 0-.204.302-.192.311-.519.191-.021.162-.03.311-.026.051.213.166.315.396.315V.149s-.013-.004-.03-.021L154.178 0l-.013.013zm-2.769 2.482l-.098-.081c.149.026.064-.026.14.077h-.042v.004zm2.449-.077h-.042l-.009-.085c.039.043.017.013.051.085zm-.14.46c-.094-.009-.085 0-.136-.034.093.009.085 0 .136.034zm-.196-.204l.055.128-.132.013c-.157-.085-.4.017-.575.051v-.043c.119-.072.162-.089.2-.243l.456.094h-.004zm-.256-.873c-.068-.038-.149-.03-.268-.021-.047.111-.068.132-.06.319-.388.026-.456-.17-.69-.251l-.264.068-.102-.17c-.15-.055-.32.094-.537 0v-.043c.264-.034.477-.281.554-.272l.196.204.311-.026c.119.047.14.111.366.102l.034-.136c.102.047.145.085.277.111.055-.132.077-.234.243-.289.055.047.119.085.187.119-.093.149-.102.247-.243.289l-.004-.004z"/><path d="M153.909 4.197c-.055.098-.064.064-.068.23l.09-.009v-.043a.13.13 0 0 0-.022-.179zm36.586 4.641h-.077l.073.307c-.051.034-.09.055-.124.102-.106-.021-.157-.098-.234-.115-.205-.043-.345.077-.58.004-.029-.064-.038-.072-.059-.175.064-.03.072-.038.174-.06.094.111.103.175.286.2.123-.179.183-.383.392-.485-.124-.175-.26-.332-.409-.477-.128.034-.251.064-.328.055l-.192-.162c-.226-.089-.43.072-.707.106l-.102-.123c.076-.081.076-.2.153-.281.136-.132.268-.089.486-.085.059.089.072.077.106.213a.57.57 0 0 0 .154-.081c-.252-.179-.516-.336-.818-.46-.512-.209-1.13-.336-1.833-.404-.259.094-.379.251-.681.324.004-.06.055-.204.115-.362l-.49-.017a6.01 6.01 0 0 0-.614.034l.294.047v.043l-.396.034c-.047-.03-.013-.013-.094-.038l-.029-.068a7.81 7.81 0 0 0-.989.196l-.358.106c0 .004.009.009.013.017-.051.102-.038.668-.06.851l-.089.009-.051-.085c-.162-.192.017-.336-.085-.485-.03-.043-.107-.102-.196-.17l-.963.345c-.563.226-1.027.451-1.385.677V7.19h-3.144v6.65l.072.017c-.013.017-.026.034-.043.047l-.029.03v4.751l.089-.009c.064.204.119.251.379.234l-.017-.179.09-.008.017.179c-.068.03-.102.047-.218.064-.008.094 0 .085-.034.136-.051-.14.017-.068-.102-.123-.064.009-.106.047-.183-.072.047-.098.013-.102-.017-.221v.4h.034l.008.085h-.042v.366c.072.004.072 0 .119.03-.081-.009-.089-.004-.119-.026v4.568h3.144v-2.822c-.132.051-.268.055-.596-.017-.226-.047-.213.153-.392.123-.273-.047-.465-.332-.703-.387l-.264.068c-.179-.008-.55-.081-.644-.213-.03-.038-.021-.145.026-.226.14-.149.426-.196.549-.362.056-.106.005-.2.111-.277v-.043a.39.39 0 0 0 .043.043c.14.192.076.549.537.532l.076-.14a.94.94 0 0 0 .452.051c-.03.145-.013.247.162.298.06.034.111.03.226.026a1.65 1.65 0 0 1 .191-.375c.081.021.043.004.094.038.077.055.051.026.102.123l-.179.017.017.179a.28.28 0 0 0 .047.043c.077-.034.107-.06.145-.089v-9.808c-.132-.017-.247-.077-.311-.221-.051-.064-.059-.179-.072-.307l.204-.243.192.162.311-.026.102.123c.077.025.213-.068.218-.064.051.038.085.077.115.115l.438-.17a10.38 10.38 0 0 1 1.556-.438c.012 0 .025 0 .034-.004.081-.068.085-.068.115-.187l.136.034c-.017.038-.03.081-.047.123.465-.081.925-.132 1.364-.132.945 0 1.657.187 2.13.558s.788.975.946 1.809.238 1.95.238 3.346v3.274c.073-.034.154-.06.205-.107l.183.072c-.094.119-.175.179-.239.332-.081-.021-.042-.004-.093-.038-.026-.004-.043-.013-.06-.017v5.228h3.178v-8.918c0-1.507-.089-2.793-.268-3.853-.175-1.026-.469-1.865-.878-2.52l-.004.017zm-12.824 9.102c.038-.047.051-.081.076-.14h.043l.017.174c-.094-.008-.085 0-.136-.034zm.434-.128c-.068-.051-.49-.268-.387-.324l.029-.183a1.01 1.01 0 0 1 .448.498l-.09.009zm1.283-2.746l.008.089-.089.009-.009-.089.09-.008zm-1.078-6.739l-.009-.089.179-.017.009.089-.179.017zm.405 5.679v-.043c-.124-.055-.073-.013-.107-.17.03-.051.021-.043.034-.136.188-.025.239-.051.354-.03-.013.017-.026.034-.043.047-.068.102-.132.264-.238.332zm.149 4.274s-.026.034-.043.047l-.013-.132c.107-.068.03.017.081-.098l.09-.008c-.034.106-.022.128-.12.187l.005.004zm.132-.549l-.009-.089c.056.068.081.042.009.089zm.554-1.341c-.103-.111-.367-.272-.52-.311v-.043c.328-.009.434-.03.413-.349.153 0 .311.03.409.098l.098.081-.098.409c-.072.064-.179.089-.302.115zm.404.008c-.021-.14-.029-.064-.017-.179.039.051.043.072.06.175h-.043v.004zm.597 2.763c-.077.034-.043.013-.085.051-.081-.021-.043-.004-.094-.038-.038-.043-.03-.038-.056-.128.133.017.167.013.235.115zm-.247-10.025c-.243-.179-.495-.098-.537-.532.03-.051.021-.043.034-.136.136-.017.119-.043.179-.017a1.3 1.3 0 0 1 .46.673l-.132.013h-.004zm.426.277c-.073-.123-.081-.077-.064-.217l.179-.017c.03.064.038.072.059.175-.063.03-.072.038-.174.06zm3.417-.251c-.047-.03-.013-.013-.094-.038l-.051-.085a.78.78 0 0 0 .166-.149c.175.043.2.145.375.192v.043l-.396.034v.004zm.69.251l.089-.009.009.089c-.124-.021-.077.038-.098-.081zm1.159-.055c-.196-.072-.673.2-.793.158h-.042s.025-.03.042-.043c.056-.179.167-.119.247-.243.103-.162.128-.358.226-.511.094.009.086 0 .137.034.225.047.409.162.443.451-.103.077-.094.111-.256.158l-.004-.004zm1.661-1.975c-.063.051-.178.06-.306.072.008-.094 0-.085.034-.136.055-.043.106-.051.217-.064.047.03.013.013.094.038l.008.089h-.042-.005zm.554 1.741c-.038.043-.072.064-.123.102l-.009-.089c-.093-.098-.14-.209-.166-.387.03-.047.013-.013.038-.094l.09-.009c.043.2.234.349.175.477h-.005zm.107-.324l-.009-.089c.056.068.081.043.009.089zm.047-.988c-.039-.043-.017-.013-.051-.085h-.043s.026-.03.043-.043c.042-.038.038-.03.127-.055.03.068.047.102.064.217-.093-.009-.085 0-.136-.034h-.004zm.306 11.762l.035-.136c.042.038.063.072.102.123l-.132.013h-.005zm2.046-1.158v.043c.076.068.081.085.11.213l-.179.017s-.034-.026-.046-.043c.017-.072.025-.111.025-.226l.09-.009v.004zm-.201-.251c.094.068.081.055.107.213h-.043v-.043c-.085-.094-.068-.064-.059-.175l-.005.004zm-.14-.077l.008.089-.089.009-.009-.089.09-.008zm-.699-6.994c.111.008.264.03.362.06-.013.017-.025.034-.042.047-.073.064-.179.089-.303.115-.043-.106-.043-.111-.021-.221h.004zm-.119 6.841c.128.094.413.094.511.226-.081.128.021.209-.06.362v-.043c-.102-.098-.076-.14-.119-.302-.158-.034-.179-.089-.366-.102.008-.094 0-.085.034-.136v-.004zm.238 1.184h-.042l-.009-.085c.039.043.017.013.051.085zm-.975-.941l.089-.009v.043c-.077-.021-.038-.004-.089-.038v.004zm.396 1.486l-.09.009-.008-.089c-.098-.094-.094-.132-.068-.264.179.034.174.034.2.251-.03.047-.013.013-.038.094h.004zm.115-8.982l.136.034c.022.192.03.162.026.311h-.043v-.043c-.14-.081-.153-.136-.115-.302h-.004zm.643 11.017c-.093.03-.042.047-.136-.034l.179-.017v.043h-.043v.009zm.107-1.349c-.094.106-.141.14-.2.285-.081-.021-.043-.004-.094-.038-.222-.034-.311-.123-.388-.324.09-.025.085-.017.128-.055.2.051.183.145.46.14l.03-.183h.042c.017.132.043.115.017.175h.005zm-.034-.89v-.043c-.043-.051-.043-.072-.064-.175.102.017.119.021.183.072-.06.077-.026.085-.124.145h.005zm.093-.456c-.081.094-.085-.038-.098-.081l.137.034c-.013.017-.026.034-.043.047h.004zm.098-.409l-.055-.128.179-.017c0 .106-.009.111-.03.183l-.094-.038zm.158.256s.09.017.051.085c-.051-.017-.145-.068-.051-.085zm.162.834c-.051.038-.043.009-.179.017l-.009-.089c.124-.098.15-.158.145-.37l-.132.013c.009-.094 0-.085.034-.136.064.068.103.081.188.119-.021.153.038.187.081.396l-.128.055v-.004zm.132-.549c.124.017.2.047.277.111h-.043l-.034.141c-.038-.043-.017-.013-.051-.085-.157-.064-.136-.043-.149-.166zm.285.69c-.059-.089-.072-.077-.106-.213.03-.047.013-.013.038-.094l.132-.013.026.311-.09.008z"/><path d="M179.75 20.795c-.043.098-.056.085-.068.23.072.017.11.026.225.026.013-.017.026-.034.043-.047-.038-.111-.03-.081-.021-.221l-.179.017v-.004zm-12.978.818l-1.048.068-.844.017c-.149 0-.281-.009-.413-.021 0 .026-.004.051 0 .089.081.021.043.004.094.038.157-.055.153-.128.311-.026.042.06.017.174.068.264s.247.145.328.196c-.021.081-.004.043-.038.094-.064.085-.034.064-.171.102l-.021-.221a.78.78 0 0 0-.226-.026l.017.179s-.025.034-.042.047c-.401.06-.597-.115-1.031-.043-.248.038-.256.264-.427.217-.123-.2-.059-.702-.038-.979a3.01 3.01 0 0 0 .396-.102 1.31 1.31 0 0 1-.289-.17c-.316-.247-.524-.681-.627-1.298s-.153-1.482-.153-2.584V9.889h5.036V7.22h-4.18c.132.145.277.251.563.353l-.081.098c-.294-.026-.571.098-.759.021-.242-.102-.311-.315-.694-.298l-.017-.179c.055-.051.094-.102.132-.145V4.925c-.162 0-.175.004-.371.034-.042-.098-.068-.238-.081-.396.201-.03.23-.047.401-.034l.051.26v-.966h-.115c-.034-.153-.068-.175-.115-.302-.58-.153-.158-.136-.439-.409-.111-.106-.2-.03-.285-.2l-.047-.043.089-.009c.094-.089.205-.106.392-.123-.021-.221-.072-.281-.128-.434.056-.017.098-.03.137-.051h-.196l.012.055c-.17.017-.302-.009-.417-.055h-1.423c-.038.128-.009.094-.162.14l-.009-.089s-.004-.034 0-.051h-.404v.038c.098.021.183.051.324.064.042.213.259.404.183.566-.154.192-.286.136-.507.179v1.158l.076-.094c.115.038.307.094.375.192-.046.115.069.204.022.264-.03.021-.239.081-.473.145V7.22h-2.301v.673c.051.055.085.115.119.17.098.038.222-.047.264-.068.081.034.069.072.231.068.068-.119.072-.123.255-.158.137.166.098-.034.315.017.069.017.222.136.324.149.448.06.895-.494 1.146-.681.073.264.154.558.495.536.059-.047.14-.055.264-.068l-.017-.179s.025-.034.042-.047c.26.051.184.038.397-.081.093.14.208.111.294.285.042.055.051.106.063.217a1.12 1.12 0 0 1-.306.072c-.184-.179-.26-.217-.55-.175-.03.251-.128.294-.226.468h-.042c-.06-.213-.426-.396-.661-.387-.089 0-.119.17-.162.192-.162.085-.566-.038-.796.068-.179.081-.196.277-.324.387-.149.128-.213 0-.247.243.123.102.098.149.324.149.217-.17.898.102 1.005.268-.013.017-.026.034-.043.047l.132-.013-.012-.132c.298 0 .145.064.277.111.217.072.358-.132.485-.085.124.102.098.149.324.149.051-.038.073-.043.175-.06.047-.098.085-.111.115-.234-.166-.136-.252-.345-.281-.647.012-.017.025-.034.042-.047.094.017.324.047.409.098.166.123.418.311.452.587-.085.094-.188.145-.073.183.243.447.205.639.729.651l.055.128h-.042c-.039.043-.115.077-.171.106.06.098.141.191.111.26-.064.085-.034.064-.17.102-.068-.038-.149-.03-.269-.021l.009.089c-.068.085-.068.119-.064.272.136-.017.119-.043.179-.017l.098.081-.141.46c-.038-.043-.017-.013-.051-.085-.324-.136-.085-.107-.251-.336-.077-.106-.333-.119-.422-.23-.226-.277-.311-.536-.392-.903l-.226-.026.013.132-.264.021-.013-.132c-.856-.055-1.125-.37-1.789-.558l-.013-.132c-.324.021-.516.098-.746.153-.081-.234-.072-.519-.366-.57v1.12h2.301v8.446c0 1.622.153 2.878.455 3.767s.81 1.516 1.521 1.873 1.662.541 2.859.541a10.18 10.18 0 0 0 1.082-.068l1.3-.153 1.167-.187-.17-2.567-.946.085-.017.013zM166.44 9.54c-.201.017-.243.021-.324-.106h-.043s.026-.03.043-.043c.072-.055.213-.068.349-.077v.043c-.025.055-.025.077-.025.183zm-.252-1.362v.043c-.076-.021-.038-.004-.089-.038l.089-.009v.004zm.282.153c0 .14-.03.213-.06.319l-.337-.285v-.043c.213-.017.141.017.401.009h-.004zm-2.016-1.077c.09.106.094.111.277.111l.022.264c.102.026.242.026.404.009.073-.081.175-.119.299-.162a.97.97 0 0 0 .332.732c-.209.183.013.353.06.711a.24.24 0 0 1-.043.047c-.017-.013-.034-.026-.047-.043-.209-.175-.388-.902-.533-.979-.106-.068-.319-.06-.455-.094-.128-.209-.231-.387-.486-.447V7.36c.102-.051.064-.055.166-.102l.004-.004zm-3.643.226l-.008-.089c.03-.047.013-.013.038-.094l.09-.009c-.034.106-.022.128-.12.187v.004zm.993-2.452c-.2.132-.486-.153-.762-.021-.073.034-.137.234-.209.153-.128-.094-.247-.187-.303-.375l.264-.068c0-.204.052-.319.235-.379.076.132.268.447.358.507.162.102.298.034.498.089l.009.089-.09.009v-.004zm-1.257 16.407c-.068.072-.085.077-.213.106l-.021-.264h.043c.072.047.191.077.277.106-.043.038-.013.017-.086.051zm1.287-3.729c.03.217.102.243-.017.315-.051-.077-.064-.068-.102-.17-.039-.043-.03-.038-.056-.128l.179-.017h-.004zm-.469 1.29c-.106-.111-.093-.034-.102-.17.128.021.158.034.234.115.017.013.035.026.047.043l-.179.017v-.004zm.507 2.767c-.106.081-.14.051-.225-.026l.264-.021v.043h-.043l.004.004zm-.106-7.403s-.034-.026-.047-.043c.021-.085.026-.179.017-.315l.179-.017.026.311c-.064.03-.073.038-.175.06v.004zm.324-2.976l.136.034c.021.102.03.106.06.175l-.179.017c-.034-.077-.013-.043-.051-.085l.034-.136v-.004zm.162 11.102c-.043.038-.039.03-.128.055l-.026-.311.217-.064v.043c-.098.115-.021.17-.059.273l-.004.004zm.217-10.868s-.026.034-.043.047c.009-.145.026-.132.068-.23l.09-.008c-.034.089-.051.128-.119.187l.004.004zm.567 9.595s-.035-.026-.047-.043c-.047-.081-.026-.03-.013-.132.077.055.051.026.102.123-.013.017-.025.034-.042.047v.004z"/><path d="M160.88 9.842c.025-.119.042-.111.068-.23-.038-.043-.03-.038-.055-.128l-.265.021.009.089c-.03.055-.03.077-.03.183.107.047.107.064.273.064zm1.05.218l-.132.011.016.178.131-.011-.015-.178zm2.635 11.83h-.043s-.034-.021-.046-.038c.025.115-.03.06.097.081v-.043h-.008zm5.982-12.605a2.17 2.17 0 0 1 .204-.03c.013-.017.026-.034.043-.047.026.204.013.23.115.302.111.14.409.119.554.221l-.089.009c-.077.085-.465.136-.827.166v9.225c.128-.238.418-.498.507-.745.106-.289-.141-.392.179-.506l.008.089c-.17.281-.085.656-.051.941l-.132.013.022.221.132-.013c.025.123.046.192.11.26.06.034.111.03.226.026.056-.068.145-.136.205-.196l.017.179c-.094.081-.06.102-.209.153-.111-.047-.153.162-.392.123-.107-.017-.243-.068-.452-.051a.44.44 0 0 1-.166.17v4.342h3.145V10.536a1.45 1.45 0 0 1-.294-.119 2.21 2.21 0 0 0 .294-.511v-2.69h-3.145v2.077l-.004-.009zm.213 3.184c-.094.03-.043.047-.136-.034l.179-.017v.043h-.043v.008zm.418.187c-.167.026-.201.055-.303.115l-.021-.221c.089-.085.102-.115.11-.277l.222-.021c.009.243-.03.238-.008.404zm.255-.158v.043c-.106-.03-.072-.013-.136-.077l.136.034zm.644 6.909l-.022-.264.09-.008v.043c.047.055.051.107.068.217l-.132.013h-.004zm.157-6.398c-.098.047-.106.089-.175.06h-.042s.025-.03.042-.043l.03-.183.183.072-.038.094zm-.03 4.781l-.089.009-.013-.132c.077.055.051.026.102.123zm-.272-5.202l-.017-.179.132-.013c0 .106-.009.111-.03.183l-.09.008h.005zm.886 5.547l-.09.008V18.1c-.042-.043-.021-.013-.055-.085l.136.034.009.089v-.004zm-.124-.392c-.093-.009-.085 0-.136-.034.094.009.085 0 .136.034zm-.792-8.101c.034.072.051.136.068.264-.03.055-.03.077-.03.183.192.072.469.273.533.49l-.311.025c-.269-.311-.597-.272-.656-.881a1.31 1.31 0 0 1 .396-.081zm-.166 8.901c-.047-.136-.043-.238.106-.324.06.158.043.153.239.158l.03-.183h.042l.022.217c-.299.089-.299.323-.635.413.017.136.042.174.021.221v.043c-.077-.021-.141-.026-.264-.021l-.056-.128h.043c.043-.153.132-.23.192-.379l.264-.021-.004.004zm-1.104-10.127l.132-.013c.022.149.056.187.022.264-.064.085-.081.064-.12.187-.038-.043-.017-.013-.051-.085-.077-.098-.047-.221.017-.315v-.043.004zm33.251 8.81l-.132.011.012.131.131-.011-.011-.131zm-.87.791l-.132.011.016.178.131-.011-.015-.178zm.31 3.498l-.178.015.011.131.179-.015-.012-.131zm-1.644-4.495l.264-.068c.013-.017.026-.034.043-.047l-.021-.221c-.137 0-.269-.008-.405-.008.034.192.072.179.119.345zm.963.319c.077-.034.043-.013.085-.051.239-.102.277-.456.247-.779-.136-.068-.14-.111-.366-.102-.055.132-.098.264-.239.332l.017.179.132-.013-.012.358c.059.026.098.038.14.077h-.004zm-2.727-7.884a4.86 4.86 0 0 1 .703-.119c0-.009-.008-.017-.017-.038-.213-.013-.289-.038-.541-.043l-.149.196.004.004zm4.022 7.321l-.132.013c-.034.123-.051.081-.068.23h-.043l.047.043c.047.03.013.013.094.038l.123-.145-.017-.179h-.004zm-5.814-6.235l-.178.015.016.178.178-.015-.016-.178zm5.12-.963c.14.051.272.106.392.17-.103-.094-.243-.14-.392-.17z"/><path d="M200.908 8.693c-.136-.111-.298-.26-.473-.315-.043.132-.064.217-.055.404.174.085.221.153.502.136.013-.017.026-.034.043-.047-.009-.136.021-.123-.017-.179zm2.381 8.365l-.178.017c-.017.068-.022.077-.03.183.068.017.076.021.183.03.013-.017.025-.034.042-.047l-.017-.179v-.004zm1.014.851c.034-.06.03-.111.026-.226l-.098-.081-.132.013c-.047.106-.064.106-.064.272a.24.24 0 0 1 .047.043c.145 0 .145.03.221-.021zm-7.762-8.569l.072.307.264-.021c.073-.089.205-.085.299-.162a1.85 1.85 0 0 1-.252-.336l-.132.013-.064-.217-.179.017c-.025.149.026.064-.076.14.012-.111.034-.217-.069-.264-.055.119-.085.098-.259.111l-.175-.153c-.077.094-.145.192-.217.294.038.043.085.085.144.106.158.115.388.17.64.166h.004zm-.138.501l-.089.008.016.178.089-.008-.016-.178zm12.609 13.304c-.017.038-.03.077-.09.119-.26-.255-.567-.255-.856-.596l.285-.192c-.345-.251-.767-.451-1.257-.596-.579-.166-1.278-.285-2.087-.353.004.008.008.013.012.021l-.132.013c-.11-.06-.191-.008-.311.026-.017.072-.025.111-.025.226.145.085.192.251.221.473-.379.311-.711 1.392-1.167 1.486 0-.392.247-.4.298-.694-.315-.277-.132-.779-.362-1.086-.111-.064-.247-.038-.324-.149-.111-.111-.14-.247-.187-.383-.341 0-.656 0-.942-.008.004.102-.008.234.013.353l-.132.013.017.179-.09.009c-.085-.102-.14-.102-.2-.251-.017-.013-.034-.026-.047-.043.12-.064.166-.166.222-.264l-.882-.034c-.541-.034-.942-.102-1.202-.204s-.434-.243-.524-.421-.136-.417-.136-.711c0-.158.064-.422.188-.796a9.46 9.46 0 0 1 .387-.996l.797.085.763.051 1.359-.055c.008-.217-.35-.949-.452-.983l-.354.03c-.004-.183 0-.128-.025-.311-.294-.051-.486-.149-.656-.345.089-.081.123-.136.068-.23-.055-.136-.141-.319-.234-.481-1.027-.047-1.786-.302-2.259-.766-.409-.4-.66-1.017-.754-1.839-.004-.008-.012-.017-.017-.026h.013a6.78 6.78 0 0 1-.038-.736c0-.485.042-.911.128-1.281l-.107-.077c-.145.055-.324.251-.567.183s-1.043-.234-1.15-.392l-.072-.306c-.286-.285-.678-.2-.737-.783l-.184.038c-.281.732-.426 1.605-.426 2.622s.124 1.89.371 2.567.567 1.209.963 1.605a4.62 4.62 0 0 0 1.304.928l-.524.945a9.82 9.82 0 0 0-.49.979c-.136.315-.205.553-.205.711a3.85 3.85 0 0 0 .243 1.392c.111-.094.239-.157.298-.294-.03-.107-.077-.047.034-.136.124-.145.324-.17.609-.187 0 .226.081.507.401.502.047-.115-.021-.03.081-.098.06.157.043.153.239.157l.012.132c-.191.158-.243.383-.494.49v-.043c-.17-.136-.332-.306-.49-.447a4.09 4.09 0 0 0-.588.149 2.07 2.07 0 0 0 .635.788c-.588.43-1.078.839-1.47 1.235s-.686.822-.878 1.281c-.021.051-.034.106-.055.158l.524-.013c-.013.017-.025.034-.043.047-.132.128-.328.17-.553.166-.107.383-.162.817-.162 1.311l.004.243.124-.196c.225-.004.391.03.575-.051l.012.132c-.059.136.018.29-.093.456-.226-.315-.422-.17-.614-.128.056 1.069.311 1.924.767 2.567.465.656 1.168 1.132 2.101 1.435l.894-.043.103.123-.422.072c1.018.238 2.296.366 3.843.379.085-.038.089-.051.14-.136.039.043.06.085.081.14h.03l1.683-.081c-.068-.192-.153-.145-.209-.375h.043c.047.03.013.013.094.034.081.14.149.166.204.328l1.146-.179v-.043l.124.017c.392-.085.754-.187 1.099-.311l-.008-.081c.042.055.068.051.038.068l.763-.315.021-.094c.081 0 .102.008.14.017l.507-.29c.047-.03.09-.068.137-.098-.047-.051-.026-.021-.06-.094.128.021.09-.008.124.047 1.218-.877 1.832-2.235 1.832-4.095 0-1.35-.205-2.38-.609-3.091a2.47 2.47 0 0 0-.145-.221h-.017zm-2.8-1.252c.107 0 .111.009.184.03l-.064.272-.09.009-.2-.251c.102-.017.124-.021.175-.06h-.005zm-.187.417l.136.034-.11.277h-.043l-.021-.217c.029-.047.012-.013.038-.094zm-.81 1.499c.094.008.086 0 .137.034.136.098.234.192.302.375l-.179.017c-.03.03 0 .064-.085.051v-.043c-.115-.085-.17-.166-.213-.341.03-.047.013-.013.038-.094zm-.204-1.32v.043c.051.06.06.14.072.264-.119.128-.157.204-.14.46l-.132.013c-.051-.162-.09-.115-.158-.255.303-.234.128-.404.358-.524zm-1.768-.294v.043c-.23.043-.192.085-.226-.068a.66.66 0 0 1 .226.026zm-.669.549c.098.085.064.089.072.306l.09-.009.008.089-.089.008-.009-.089-.089.009-.021-.221c.029-.047.012-.013.038-.094zm-2.326.468h.042s-.025.03-.042.043a.61.61 0 0 1-.299.162c-.093-.136-.11-.192-.328-.196-.047.158-.089.145-.298.162-.281-.226-.831-.438-.963-.809l.132-.013c.162.192.409.332.584.528 0 0 1.022-.017 1.172.123zm-3.089-6.743l-.051-.085c.132-.085.566-.306.732-.332l.022.264-.128.055c-.128.136-.362.119-.571.094l-.004.004zm.779 3.325l-.089.009c-.043-.17-.081-.153-.119-.345.076-.123.115-.302.14-.46.154.047.137.055.158.255-.085.119-.051.383-.085.545l-.005-.004zm.107-3.401c.081-.051.115-.072.166-.149a4.51 4.51 0 0 1 .558.264l-.089.009c-.073.153-.149.157-.388.166-.064-.149-.158-.179-.247-.289zm-1.581 7.548l.09-.009.021.221-.09.008v-.043c-.059-.085-.038-.077-.021-.179zm.217 3.555c-.051.038-.072.043-.174.06-.111-.094-.213-.094-.29-.243-.038-.043-.017-.013-.051-.085a3.46 3.46 0 0 1 .55.132c.038.043.029.038.055.128l-.09.008zm.388-4.274c-.136.017-.119.043-.179.017-.038-.042-.03-.038-.055-.128.064-.055.034-.051.123-.102.043-.038.039-.03.128-.055l-.021.268h.004zm.039 5.087l.089-.009c-.047.077-.013.055-.089.009zm.102 1.196s-.026.034-.043.047l-.008-.089c.051-.094.047-.328.051-.451l.179-.017c.03.064.038.072.059.175-.106.106-.102.247-.238.332v.004zm.345-6.326c.025-.034.055-.064.081-.098.115.047.03-.021.098.081.064.072.081.064.055.128-.042.038-.038.03-.128.055-.055-.064-.051-.034-.102-.123h-.042s.025-.03.042-.043h-.004zm1.316 6.939l-.179.017c-.025-.221-.08-.251-.127-.434.012-.017.025-.034.042-.047l.307-.072c.017.013.034.026.047.043l-.09.498v-.004zm2.872 1.669c-.068.03-.102.047-.217.064-.043.038-.039.03-.128.055.008-.094 0-.085.034-.136.06-.047.141-.055.264-.068v-.043a.39.39 0 0 0 .043.043h.042l-.038.089v-.004zm-.358-1.039l.09-.009c-.047.077-.013.055-.09.009zm.874.817c-.175-.068-.167-.204-.243-.247-.201-.111-.205.238-.409-.098-.06-.055-.068-.072-.103-.17.154.03.81.268.882.37l-.123.145h-.004zm-.201-.741c.03-.051.022-.043.034-.136.06.026.098.038.141.077h-.043c-.042.098-.021.089-.123.149l-.009-.089zm.699.834l-.094-.038c-.029-.064-.038-.072-.059-.174l.132-.013c.034.077.013.043.051.085l-.034.136.004.004zm-.055-.621c-.132-.106-.166-.047-.205-.294.03-.047.013-.013.039-.094.136.077.038.179.11.26.077.06.086.025.145.123l-.089.009v-.004zm-.201-.741c.039.043.017.013.052.085h-.043l-.009-.085zm.865 1.222c-.102-.128-.17-.017-.323-.106.115-.06.034-.23.004-.447.23.094.379.192.405.545l-.09.009h.004zm.051-.451l.09-.008v.043c-.077-.021-.038-.004-.09-.038v.004zm.222-.021s-.034-.026-.047-.043c.077-.051.068-.064.171-.102l.017.179c-.094-.008-.086 0-.137-.034h-.004zm1.257.562c-.094-.111-.119-.183-.077-.349.154.038.154.038.196.204-.059.077-.025.085-.123.145h.004zm.021-.762c-.03-.294-.128-.362-.187-.609.012-.017.025-.034.042-.047l.09-.009c.068.14.051.115.234.115l.013.132c.132.064.349.196.43.319-.013.017-.025.034-.042.047-.248-.068-.363-.026-.576.051h-.004zm.554-1.877c-.055.077-.026.051-.123.102v-.043s-.035-.026-.052-.043c.052-.034.09-.055.124-.102.115.047.03-.021.098.081h-.043l-.004.004zm.107.711l.012.132c-.093-.008-.085 0-.136-.034-.038-.043-.017-.013-.051-.085l.179-.017-.004.004zm-.265.021c-.136-.077-.085-.06-.102-.17.039.03.149.055.102.17zm.435 1.392c-.043.179-.187.285-.324.387-.03-.332-.123-.302-.264-.468l.264-.021c.034.021.009.064.094.038v-.043c.047-.081.055-.192.06-.319.098.089.221.319.17.43v-.004zm.06-.362l-.09.009c-.059-.221-.047.009-.106-.213l.221-.021-.025.226zm0-.536v.043c-.034-.043-.013-.013-.047-.085l.089-.009s-.025.034-.042.047v.004zm.336.775l-.013-.132c.039.043.03.038.056.128h-.043v.004zm.098.085c.098.017.081-.013.137.034-.103.072-.056.021-.137-.034zm.222-1.047c-.077.085-.03.085-.128.055-.124-.068-.064 0-.055-.128.127 0 .196.013.272.064l-.089.009zm-.094-1.601c.055.068.081.043.009.089l-.009-.089zm-.835.426c-.746.426-1.905.643-3.481.643-1.172 0-2.083-.089-2.739-.268s-1.117-.477-1.385-.894-.405-.962-.405-1.639a2.92 2.92 0 0 1 .153-.996c.102-.281.282-.553.542-.809a10.74 10.74 0 0 1 .997-.86c.11 0 .315.013.609.034l.997.051 1.082.034.826.017.682.009v-.038l.128-.013v.055c.601.025 1.112.072 1.521.153.588.111.997.349 1.236.711s.353.924.353 1.69c0 .992-.37 1.698-1.116 2.129v-.009zm1.359-3.64c-.06.047-.141.055-.264.068-.094-.136-.141-.332-.222-.515-.11-.03-.166-.021-.234-.115.136-.043.09-.038.17-.102-.034-.102-.063-.136-.106-.213l.222-.021.008.089c-.089.111-.047.038-.026.226.094.008.086 0 .137.034l.166.387a.66.66 0 0 1 .226.026c-.043.123.047.077-.077.14v-.004zm-.021-1.294c-.03.03 0 .064-.085.051v-.043c-.052-.081-.03-.03-.017-.132a.71.71 0 0 1 .268.021l.008.089-.178.017.004-.004zm1.968 2.597c.119.055.051-.013.102.123-.149-.055-.089 0-.102-.123zm-.29-2.299s-.025.034-.042.047h-.043l-.013-.128c.115.047.03-.021.098.081zm-.34-.328c.149.026.064-.026.14.077-.102.021-.106.03-.174.06l.034-.136zm-.124.634c.051-.038.209-.072.26-.111.115.047.03-.021.098.081.081.072.085.106.111.26-.013.017-.026.034-.043.047a.95.95 0 0 0-.392.123l-.03-.353h-.042s.025-.03.042-.043l-.004-.004zm-.618 2.154l-.013-.132a.93.93 0 0 0 .12-.187l.089-.009.022.221c-.081.043-.111.072-.213.106h-.005zm.209.873l-.179.017-.008-.089.179-.017.008.089zm-.217-3.555c.042.055.051.106.064.217l-.09.009c-.017-.166-.03-.077.026-.226zm-.307.072l-.017-.179h.043v.043c.042.038.063.072.102.123l-.132.013h.004zm.537 4.104c-.043.149-.03.119-.209.153-.017-.013-.034-.026-.047-.043l-.064-.217c.077-.034.043-.013.085-.051l.273.064c-.021.081-.004.043-.038.094zm.034-4.734c.111-.064.089-.055.119-.187-.187-.013-.192-.021-.243-.204.06-.038.158-.098.209-.153.094.009.085 0 .136.034.043.055.052.106.064.217-.221.128 0 .255-.055.404v.043l-.085.009c-.064-.077-.094-.068-.149-.166l.004.004zm.354 2.022s-.026.034-.043.047l.004.579c-.094-.009-.085 0-.136-.034l-.171-.43c.115-.111.133-.298.184-.464.145.043.673.332.575.443v.043c-.154-.098-.162-.183-.413-.187v.004zm.558 3.836c-.06-.123-.09-.098-.154-.209.098-.119.039-.153.252-.2l-.013-.132.089-.009v-.043s.03.026.043.043h.043c-.047.102-.064.102-.064.268l.089-.009c.009-.094 0-.085.034-.136l.022.221c-.141.068-.222.145-.341.209v-.004zm.323-3.465l-.098-.081v-.043l.128-.013c-.008.094 0 .085-.034.136h.004zm.409.098l-.132.013c-.017-.136-.042-.119-.017-.179.052-.077.086-.098.167-.149.025.196.034.149-.018.315zm.188-.417c-.038-.043-.017-.013-.051-.085l.089-.009s-.025.034-.042.047v.043l.004.004zm.017-.894h-.043a1.32 1.32 0 0 0-.609-.345v-.043c.064-.03.098-.047.213-.064.056-.004.154.051.32.06.059.217.115.196.123.392h-.004z"/><path d="M208.713 22.928h.043c.038.034.081.047.123.051l-.132-.149c-.021.038-.063.013-.038.098h.004zM197.87 10.74l-.098-.081-.179.017.017.179c.098.043.085.055.23.068.017-.068.021-.077.03-.183zm-1.385-2.065c-.085-.051-.085-.081-.187-.119-.038-.021-.047-.026-.09-.03l-.063.06a.88.88 0 0 0-.013.115c.196.017.179.021.362.06l-.009-.089v.004zm6.4 7.348c.081.081.089.196.2.251.085.047.077-.004.136.034.115.115.051.149.282.153.008-.094 0-.085.034-.136.089-.102.157-.089.204-.243-.162-.081-.26-.234-.383-.345a3.52 3.52 0 0 1-.465.149c0 .034-.008.077-.004.136h-.004zm1.337.465c-.068-.017-.076-.021-.183-.03-.012.017-.025.034-.042.047l.013.132c.149.017.106.034.23.068l-.022-.221.004.004zm-3.084-7.182c.043-.021.098-.021.119-.196l-.221.021s-.026.034-.043.047l.013.132h-.013.141l.004-.004zm-1.538.238s-.039-.038-.098-.064v.098l.098-.034zm3.289-.71c-.23.098-.375-.026-.631-.034l-.034.136c-.029.055-.029.077-.029.183.153.06.272.047.332.238-.009.013-.013.026-.017.038l.251.051a.65.65 0 0 1 .171-.077v-.49a.23.23 0 0 1-.047-.043l.004-.004zm-1.521 7.721l.089-.009c.179.094.269-.064.243-.289l-.183-.072c-.106.136-.158.115-.145.37h-.004z"/><path d="M210 8.641V7.172l-5.172.136c-.384-.111-.912-.213-1.59-.302L202.08 6.9c.081.077.157.157.213.247l-.132.013c-.098-.043-.38 0-.533.047-.043.145-.043.341-.188.417v.043s-.029-.026-.042-.043c-.038-.043-.03-.038-.056-.128.124-.128.047-.247.005-.447a.62.62 0 0 0 .162-.17c-.064 0-.132-.009-.196-.009-1.308 0-2.459.192-3.447.575a4.75 4.75 0 0 0-1.491.924h.038c.26-.332.852-.094 1.419-.123l.008.089c-.047.085.141.954.226 1.051.06.034.111.03.226.026.072-.094.209-.123.345-.162l-.021-.221c-.094-.119-.128-.481-.145-.656h.042v.043c.12.089.098.115.324.106.073-.043.115-.021.264-.021.056-.136.081-.192.248-.243l.336.285c-.021.17-.055.294.081.396.09.06.166.064.32.06.021-.158.251-.805.413-.885.111-.085.49-.158.609-.187.098.145.171.149.213.383-.132.098-.192.153-.192.375.154.064.328.064.584.038.311-.307 1.053.026 1.389.06.081.83.618.507.844.954h-.043c-.051.047-.102.051-.204.064.149.085.285.179.4.289.55.519.827 1.384.827 2.601s-.277 2.082-.827 2.601a2.02 2.02 0 0 1-.319.238c.038.013.072.03.093.06.064.106.047.362.081.439.111-.017.137.004.315.017.018-.06.043-.141.073-.183v.043c.094.089.209.737.2.741-.166.119-.251-.021-.341.209.141.221-.068.264.047.532.073.17.247.277.307.464-.077.064-.068.094-.166.149-.043.038-.039.03-.128.055l.008.085.465-.123c-.009-.055-.013-.098 0-.136.06-.047.14-.055.264-.068l.013.128c1.001-.328 1.751-.911 2.245-1.754s.746-2.009.746-3.495l-.009-.302c0-.008-.008-.017-.025-.055.012.004.017.004.025.009-.025-.63-.115-1.158-.277-1.575-.191-.494-.434-.89-.728-1.183l2.496.055-.012-.026.183.03.341.009v-.753h-.047a.69.69 0 0 1 .021-.264c.013.009.017.013.026.021l.004-.013zm-10.954-.813l-.111.277c-.081-.021-.042-.004-.093-.038a.38.38 0 0 1-.15-.166c.12-.064.367-.247.461-.353.191.009.404.026.575-.051l.008.089-.694.238.004.004zm1.193-.149c-.119-.098-.153-.038-.2-.251l.179-.017c.059.098.106.14.157.255l-.132.013h-.004zm2.995 1.034l-.008-.089c.055.068.081.043.008.089zm.345-.656c-.068.089-.038.243-.064.272-.051.038-.072.043-.174.06-.192-.324-.52.06-.635-.613.149 0 .077.009.221-.021l-.017-.179c-.093-.009-.085 0-.136-.034-.047-.077.051-.175-.026-.311-.046-.081-.174-.064-.238-.158.064-.03.072-.038.175-.06.153.298.447.162.741.294.102.047.456.549.507.673-.196.009-.234-.034-.349.077h-.005zm.857.596c-.192-.06-.316-.094-.294-.285.068.03.375.158.289.243v.043h.005zm2.036 5.896s.034.026.047.043h.043c-.017.064-.022.072-.03.179-.166.009-.154.034-.23-.068.115-.051.111-.055.166-.149l.004-.004zm-.52.715l.013.132.132-.013.013.132c-.128 0-.196-.013-.273-.064l-.098-.081-.008-.089c.064-.03.072-.038.175-.06.017.013.034.025.046.043zm.073.843c-.051-.017-.145-.068-.051-.085.017.013.089.017.051.085zm-.136-1.55l-.09.009-.017-.179.089-.008.018.179zm-.248-.783a.66.66 0 0 1 .226.025l-.038.094c-.102.047-.162.047-.209.153-.034.064-.043.247-.06.319l-.089.008c-.072-.153-.115-.098-.162-.298.179-.115.251-.106.332-.298v-.004zm.077 1.422l-.089.009-.009-.089c-.038-.064-.004-.004-.013-.132.094.068.081.055.107.213h.004zm-.341-1.848l-.089.008-.013-.132c.119.055.051-.013.102.123zm-.451.975c.021-.081.004-.043.038-.094.047.03.013.013.094.038l.017.179c-.094-.008-.085 0-.137-.034-.038-.043-.017-.013-.051-.085h.043l-.004-.004zm-.273 1.494l.055.128-.132.013c.026-.149-.025-.064.077-.14zm1.419 1.396c-.107-.2-.192-.319-.473-.315-.137.132-.324.281-.554.315-.047-.03-.013-.013-.094-.038v-.043c.119-.085.115-.077.107-.277-.222.038-.354.234-.477.175-.035-.055 0-.145.021-.268l.515-.221c.047.03.013.013.094.038.026.17.017.213.077.349l.132-.013-.017-.179.089-.009c.137-.132.324-.102.529-.089l-.013-.132c-.243-.128-.669-.183-.869-.238-.051-.077-.064-.068-.103-.17.128-.094.167-.145.196-.328-.136-.077-.213-.128-.251-.336l.26-.111c.06.128.128.149.243.204-.009.068.068.175.025.311-.034.106-.102.081-.11.277.174.043.166.102.409.098.042-.038.038-.03.127-.055.192.29.563.379.648.792-.175.145-.17.234-.511.268v-.004zm1.333-1.635c.039.051.043.072.06.175-.013.017-.026.034-.043.047l-.089.009c-.085-.183-.183-.158-.162-.345l.179-.017.055.128v.004zm-.208-4.981v.043c-.077-.021-.039-.004-.09-.038l.09-.008v.004zm-.273-.064v-.043c-.043-.043-.021-.013-.056-.085.12.055.052-.013.103.123h-.043l-.004.004zm1.589-2.277h-.043v-.043c-.038-.043-.017-.013-.051-.085.12.055.051-.013.103.123l-.009.004zm-.068.766l.098.081c-.115.051-.149-.013-.098-.081zm-.021-.264v-.043l.119-.145c.102.111.072.123-.119.187zm.894.502l-.025.226.089-.009v.043c-.076-.021-.038-.004-.089-.038h-.043l-.03-.349c-.03-.106-.076-.047.034-.136.064-.013.137.06.23.068.15.017.137-.111.265-.068.119.055.051-.013.102.123.038.043.03.038.055.128l-.579.004-.009.009zm-10.557 20.471c.034.021.008.064.093.038v-.043l-.093.008v-.004z"/></svg>